<svg width="211.6mm" height="158.7mm" viewBox="0 0 211.6 158.7" xmlns:xlink="http://www.w3.org/1999/xlink"
   xmlns="http://www.w3.org/2000/svg">
   <defs />
   <defs>
      <linearGradient id="prefix__a">
         <stop offset="0" stop-color="#0cf" />
         <stop offset="1" stop-color="#a800ff" />
      </linearGradient>
      <linearGradient xlink:href="#prefix__a" id="prefix__d" x1="68.66" y1="123" x2="96.8" y2="102.5"
         gradientUnits="userSpaceOnUse" gradientTransform="matrix(.9421 0 0 .9616 1.866 1.119)" />
      <linearGradient xlink:href="#prefix__a" id="prefix__b" x1="51.86" y1="150.9" x2="193.9" y2="77.48"
         gradientUnits="userSpaceOnUse" gradientTransform="matrix(.9421 0 0 .9616 6.627 1.648)" />
      <linearGradient xlink:href="#prefix__a" id="prefix__c" gradientUnits="userSpaceOnUse"
         gradientTransform="matrix(.9421 0 0 .9616 1.866 1.119)" x1="91.09" y1="120" x2="116.8" y2="141.6" />
   </defs>
   <g fill="none" stroke-width="6" stroke-linecap="round" stroke-linejoin="round" stroke-miterlimit="1"
      stroke-dashoffset="37.789">
      <path
         d="M149.8 147.3c70.1-64.01 7.7-58.3-7.7-50.09 18.8-30.04-23.8-43.57-61.93-20.53-2-27.47 43.93-49.72 64.33-43.72-6.2 8.77-8.6 11.41-12.4 21.79 16.9-4.78 32.2-14.91 48.5-14.12-9.9 11.32-7.5 19.98-10.6 25.05 11.8-4.95 48.1-10.3 56.5-6.02-17.6 4.52-26.2 17.49-36 28.13 17.9 1.49 22.4-4.01 43.8-.84 1.3.19-23.7 11.17-34.8 28.65-2.6 4.1 23.8-6.6 41.8 4.6-16.6 2.9-18.6 16.8-46.3 24.3 11.3 5.9 18.9 8.6 29.6 24.5 5.3 8.6-22.4-12.5-53.4-2 2.6 3.8 8 10.6 25.8 18.5-26.6.1-62.5 1.2-64.7-24.8 6-35.4.2-62.89-42.43-74.66-15.63-.91-24.28 9.12-33.17 23.76-2.19 2.7-2.03 6-1.21 9.3 0 .1-30.91 46.4-15.81 53.4.95.5 8.96-13 39.22-13 1.38-.2 20.38.3 31.7 4.8m-38.52-23.2v0s-4.87 6.8-18.78 11.3c-4.91 1.6-12.56 13-14.67 16.5"
         stroke="url(#prefix__b)" transform="translate(-32.08 -29.66)" />
      <path
         d="M73.97 129.6c27.93 1.9 28.33-17.9 28.53-18.4m-6.45 15.1c5.95 6.6 11.05 16.2 9.85 25m-9.58-25.2c7.58 6.5 23.58 2.9 26.58 2.4"
         stroke="url(#prefix__c)" transform="translate(-32.08 -29.66)" />
      <path d="M97.42 99.5v0C82.2 99 67.94 112 65.13 123.4" stroke="url(#prefix__d)"
         transform="translate(-32.08 -29.66)" />
   </g>
</svg>