<svg width="179.9mm" height="158.7mm" viewBox="0 0 179.9 158.7" xmlns:xlink="http://www.w3.org/1999/xlink"
   xmlns="http://www.w3.org/2000/svg">
   <defs />
   <defs>
      <linearGradient id="prefix__a">
         <stop offset="0" stop-color="#0cf" />
         <stop offset="1" stop-color="#a800ff" />
      </linearGradient>
      <linearGradient xlink:href="#prefix__a" id="prefix__b" x1="47.31" y1="157.2" x2="160" y2="97.11"
         gradientUnits="userSpaceOnUse" gradientTransform="matrix(.8936 0 0 .9085 7.647 2.839)" />
      <linearGradient xlink:href="#prefix__a" id="prefix__c" x1="78.22" y1="105.8" x2="85.01" y2="115.3"
         gradientUnits="userSpaceOnUse" gradientTransform="matrix(.9968 0 0 1.005 2.233 4.094)" />
   </defs>
   <g fill="none" stroke-linecap="round" stroke-linejoin="round">
      <path
         d="M74.4 61.43c5.83-20.95 16.8-32.35 46.6-31.14-5.8 8.28-5.5 22.29-2.2 28.03 26.1-13.44 41.6-16.94 56.9-8.13-12.9 3.32-23.2 21.34-21.7 26.08 26.3-.24 15.2 7.02 46.8 7.64-7.5 15.89-18.5 27.99-34.4 28.99 2.5.6 33.6 10.6 38 24.1 1.5 4.6-23.8-1.5-43.1 9.1 3 4.6 7.7 17.6 29.9 26.2-35.7 10.2-60.1 2.6-65.9-17.6 5.7-33.4 1.8-61-38.67-72.12-14.82-.87-23.04 8.61-31.47 22.42-2.08 2.5-1.92 5.7-1.14 8.7 0 .1-24.99 29.7-15.01 50.5.45.9 8.49-12.2 37.21-12.2 1.32-.3 16.7 1.9 27.38 6"
         stroke="url(#prefix__b)" stroke-width="12.103" stroke-miterlimit="1" stroke-dashoffset="37.789"
         transform="translate(-30.54 -24.15)" />
      <path d="M87.43 107.4c18.77-1.1-4.38 18.7-13.76 18.7 0 0 1.41-18 13.76-18.7z" stroke="url(#prefix__c)"
         stroke-width="12.014" stroke-miterlimit="1.6" stroke-dashoffset="142.825" paint-order="stroke fill markers"
         transform="translate(-30.54 -24.15)" />
   </g>
</svg>