<svg width="179.9mm" height="158.7mm" viewBox="0 0 179.9 158.7" xmlns:xlink="http://www.w3.org/1999/xlink"
   xmlns="http://www.w3.org/2000/svg">
   <defs />
   <defs>
      <radialGradient xlink:href="#prefix__a" id="prefix__b" cx="39.02" cy="172.3" fx="39.02" fy="172.3" r="83.9"
         gradientTransform="matrix(1.568 .1589 -.1617 1.595 5.672 -117)" gradientUnits="userSpaceOnUse" />
      <linearGradient id="prefix__a">
         <stop offset=".297" stop-color="#0cf" />
         <stop offset="1" stop-color="#a800ff" />
      </linearGradient>
   </defs>
   <path
      d="M118.3 30.26c-27.94.49-40.9 26.33-46.78 49.94-10.7 9.66-19.06 22.2-17.5 33.5 0 .1-24.99 29.7-15.01 50.5.45.9 8.49-12.2 37.21-12.2 1.32-.3 12.91 3.5 29.98 6.5 7.4 21.2 49.3 24 85 13.8-22.2-8.6-26.9-21.6-29.9-26.2 19.3-10.6 44.6-4.5 43.1-9.1-4.4-13.5-35.5-23.5-38-24.1 15.9-1 26.9-13.1 34.4-28.99-31.6-.62-20.5-7.88-46.8-7.64-1.5-4.74 8.8-22.76 21.7-26.08-15.3-8.81-30.8-5.31-56.9 8.13-3.3-5.74-3.6-19.75 2.2-28.03-.9 0-1.8-.1-2.7 0zM95.52 106.1c12.98 8.4-19.48 21-28.57 21 0 0 6.24-36.37 20.58-26.5z"
      fill="url(#prefix__b)" transform="translate(-30.54 -24.15)" />
</svg>